<svg width="20" height="20" viewBox="0 0 20 20" fill="none" xmlns="http://www.w3.org/2000/svg">
<path d="M10.0001 13.3334C5.20014 13.3334 4.35014 8.55003 4.20014 4.75503C4.15764 3.70003 4.13681 3.1717 4.53347 2.6842C4.92931 2.19587 5.40347 2.11587 6.35264 1.95587C7.55832 1.75826 8.77838 1.66154 10.0001 1.6667C11.4868 1.6667 12.711 1.79753 13.6476 1.95587C14.5968 2.11587 15.071 2.19587 15.4676 2.6842C15.8643 3.17253 15.8426 3.70003 15.801 4.75503C15.651 8.5492 14.801 13.3334 10.001 13.3334H10.0001Z" stroke="white" stroke-width="1.25"/>
<path d="M9.16687 6.66663L10.4169 5.41663V8.74996" stroke="white" stroke-width="1.25" stroke-linecap="round" stroke-linejoin="round"/>
<path d="M15.8335 4.16663L16.6244 4.42996C17.4494 4.70496 17.8619 4.84246 18.0977 5.16996C18.3335 5.49746 18.3335 5.93246 18.3335 6.80163V6.86246C18.3335 7.57913 18.3335 7.93829 18.161 8.23163C17.9885 8.52496 17.6744 8.69913 17.0477 9.04829L14.5835 10.4166M4.16687 4.16663L3.37604 4.42996C2.55104 4.70496 2.13854 4.84246 1.9027 5.16996C1.66687 5.49746 1.66687 5.93329 1.66687 6.80163V6.86246C1.66687 7.57913 1.66687 7.93829 1.83937 8.23163C2.01187 8.52496 2.32604 8.69913 2.9527 9.04829L5.41687 10.4166" stroke="white" stroke-width="1.25"/>
<path d="M10.0002 13.3334V15.8334" stroke="white" stroke-width="1.25" stroke-linecap="round"/>
<path d="M12.9168 18.3333H7.0835L7.36683 16.92C7.40457 16.7312 7.50656 16.5612 7.65544 16.4391C7.80433 16.3169 7.99092 16.2501 8.1835 16.25H11.8168C12.0094 16.2501 12.196 16.3169 12.3449 16.4391C12.4938 16.5612 12.5958 16.7312 12.6335 16.92L12.9168 18.3333Z" stroke="white" stroke-width="1.25" stroke-linecap="round" stroke-linejoin="round"/>
<path d="M15.0002 18.3334H5.00018" stroke="white" stroke-width="1.25" stroke-linecap="round"/>
</svg>
