<svg width="20" height="20" viewBox="0 0 20 20" fill="none" xmlns="http://www.w3.org/2000/svg">
<path d="M16.6667 18.3333V15.8333C16.6667 13.4766 16.6667 12.2975 15.9342 11.5658C15.2025 10.8333 14.0233 10.8333 11.6667 10.8333L9.99999 12.5L8.33333 10.8333C5.97666 10.8333 4.7975 10.8333 4.06583 11.5658C3.33333 12.2975 3.33333 13.4766 3.33333 15.8333V18.3333M13.3333 13.3333V15.8333M14.5833 14.5833H12.0833M12.9167 5.41663V4.58329C12.9167 4.20027 12.8412 3.821 12.6946 3.46713C12.5481 3.11327 12.3332 2.79174 12.0624 2.5209C11.7916 2.25006 11.47 2.03522 11.1162 1.88864C10.7623 1.74207 10.383 1.66663 9.99999 1.66663C9.61697 1.66663 9.2377 1.74207 8.88384 1.88864C8.52997 2.03522 8.20844 2.25006 7.9376 2.5209C7.66676 2.79174 7.45192 3.11327 7.30535 3.46713C7.15877 3.821 7.08333 4.20027 7.08333 4.58329V5.41663C7.08333 5.79965 7.15877 6.17892 7.30535 6.53279C7.45192 6.88665 7.66676 7.20818 7.9376 7.47902C8.20844 7.74986 8.52997 7.9647 8.88384 8.11127C9.2377 8.25785 9.61697 8.33329 9.99999 8.33329C10.383 8.33329 10.7623 8.25785 11.1162 8.11127C11.47 7.9647 11.7916 7.74986 12.0624 7.47902C12.3332 7.20818 12.5481 6.88665 12.6946 6.53279C12.8412 6.17892 12.9167 5.79965 12.9167 5.41663Z" stroke="white" stroke-width="1.25" stroke-linecap="round" stroke-linejoin="round"/>
</svg>
