<svg width="20" height="20" viewBox="0 0 20 20" fill="none" xmlns="http://www.w3.org/2000/svg">
<g clip-path="url(#clip0_173_748)">
<g clip-path="url(#clip1_173_748)">
<path d="M6.25 2.5H3.75C3.0625 2.5 2.5 3.0625 2.5 3.75V6.25C2.5 6.9375 3.0625 7.5 3.75 7.5H6.25C6.9375 7.5 7.5 6.9375 7.5 6.25V3.75C7.5 3.0625 6.9375 2.5 6.25 2.5ZM13.75 7.5H16.25C16.9375 7.5 17.5 6.9375 17.5 6.25V3.75C17.5 3.0625 16.9375 2.5 16.25 2.5H13.75C13.0625 2.5 12.5 3.0625 12.5 3.75V6.25C12.5 6.9375 13.0625 7.5 13.75 7.5ZM13.75 3.75H16.25V6.25H13.75V3.75ZM6.25 12.5H3.75C3.0625 12.5 2.5 13.0625 2.5 13.75V16.25C2.5 16.9375 3.0625 17.5 3.75 17.5H6.25C6.9375 17.5 7.5 16.9375 7.5 16.25V13.75C7.5 13.0625 6.9375 12.5 6.25 12.5ZM6.25 16.25H3.75V13.75H6.25V16.25ZM16.25 12.5H13.75C13.0625 12.5 12.5 13.0625 12.5 13.75V16.25C12.5 16.9375 13.0625 17.5 13.75 17.5H16.25C16.9375 17.5 17.5 16.9375 17.5 16.25V13.75C17.5 13.0625 16.9375 12.5 16.25 12.5Z" fill="white"/>
<path d="M17.5 10H16.25C14.58 10 13.0112 9.35 11.83 8.17C10.6487 6.99 10 5.42 10 3.75V2.5C10 1.125 8.875 0 7.5 0H2.5C1.125 0 0 1.125 0 2.5V7.5C0 8.875 1.125 10 2.5 10H3.75C5.42 10 6.98875 10.65 8.17 11.83C9.35125 13.01 10 14.58 10 16.25V17.5C10 18.875 11.125 20 12.5 20H17.5C18.875 20 20 18.875 20 17.5V12.5C20 11.125 18.875 10 17.5 10ZM18.75 17.5C18.75 17.8312 18.6187 18.1437 18.3813 18.3813C18.1437 18.6187 17.8312 18.75 17.5 18.75H12.5C12.1687 18.75 11.8562 18.6187 11.6187 18.3813C11.3813 18.1437 11.25 17.8312 11.25 17.5V16.25C11.25 14.2609 10.4598 12.3532 9.0533 10.9467C7.64678 9.54018 5.73912 8.75 3.75 8.75H2.5C2.16875 8.75 1.85625 8.61875 1.61875 8.38125C1.38125 8.14375 1.25 7.83 1.25 7.5V2.5C1.25 2.16875 1.38125 1.85625 1.61875 1.61875C1.85625 1.38125 2.16875 1.25 2.5 1.25H7.5C7.83125 1.25 8.14375 1.38125 8.38125 1.61875C8.61875 1.85625 8.75 2.16875 8.75 2.5V3.75C8.75 5.73912 9.54018 7.64678 10.9467 9.0533C12.3532 10.4598 14.2609 11.25 16.25 11.25H17.5C17.8312 11.25 18.1437 11.3813 18.3813 11.6187C18.6187 11.8562 18.75 12.1687 18.75 12.5V17.5Z" fill="white"/>
</g>
</g>
<defs>
<clipPath id="clip0_173_748">
<rect width="20" height="20" fill="white"/>
</clipPath>
<clipPath id="clip1_173_748">
<rect width="20" height="20" fill="white"/>
</clipPath>
</defs>
</svg>
