<svg width="20" height="20" viewBox="0 0 20 20" fill="none" xmlns="http://www.w3.org/2000/svg">
<path d="M7.50001 4.99996H11.6667M7.50001 4.99996V7.08329H11.6667V4.99996M7.50001 4.99996V3.74996C7.50001 2.49996 8.75001 1.66663 10 1.66663H14.5833C14.5833 1.66663 11.6667 2.49996 11.6667 4.16663V4.99996M5.41667 7.91663C5.41667 7.69561 5.50447 7.48365 5.66075 7.32737C5.81703 7.17109 6.02899 7.08329 6.25001 7.08329H12.9167C13.1377 7.08329 13.3496 7.17109 13.5059 7.32737C13.6622 7.48365 13.75 7.69561 13.75 7.91663V15.8333C13.75 15.8333 13.75 18.3333 11.25 18.3333H7.91667C5.41667 18.3333 5.41667 15.8333 5.41667 15.8333V7.91663Z" stroke="white" stroke-width="1.66667" stroke-linecap="round" stroke-linejoin="round"/>
</svg>
