<svg width="17" height="17" viewBox="0 0 17 17" fill="none" xmlns="http://www.w3.org/2000/svg">
<path d="M10.0911 3.23176L14.7706 7.94431C14.8433 8.01728 14.901 8.10399 14.9404 8.19946C14.9797 8.29493 15 8.39728 15 8.50066C15 8.60403 14.9797 8.70638 14.9404 8.80185C14.901 8.89732 14.8433 8.98403 14.7706 9.057L10.0911 13.7696C9.94454 13.9171 9.74582 14 9.53862 14C9.33141 14 9.13269 13.9171 8.98617 13.7696C8.83965 13.622 8.75734 13.4219 8.75734 13.2132C8.75734 13.0045 8.83965 12.8044 8.98617 12.6569L12.334 9.28543H2.77992C2.57308 9.28543 2.3747 9.20268 2.22843 9.05538C2.08217 8.90808 2 8.70831 2 8.5C2 8.29169 2.08217 8.09192 2.22843 7.94462C2.3747 7.79732 2.57308 7.71457 2.77992 7.71457L12.334 7.71457L8.98552 4.34313C8.839 4.19558 8.75669 3.99546 8.75669 3.78679C8.75669 3.57812 8.839 3.378 8.98552 3.23045C9.13204 3.0829 9.33076 3 9.53797 3C9.74517 3 9.94389 3.0829 10.0904 3.23045L10.0911 3.23176Z" fill="white"/>
</svg>
