<svg width="11" height="11" viewBox="0 0 11 11" fill="none" xmlns="http://www.w3.org/2000/svg">
<path d="M6.5523 2.54098L9.64606 5.63473C9.69413 5.68263 9.73227 5.73955 9.75829 5.80223C9.78431 5.8649 9.79771 5.9321 9.79771 5.99996C9.79771 6.06782 9.78431 6.13502 9.75829 6.19769C9.73227 6.26037 9.69413 6.31729 9.64606 6.36519L6.5523 9.45894C6.45544 9.55581 6.32406 9.61023 6.18707 9.61023C6.05008 9.61023 5.9187 9.55581 5.82184 9.45894C5.72497 9.36208 5.67055 9.2307 5.67055 9.09371C5.67055 8.95672 5.72497 8.82534 5.82184 8.72848L8.03516 6.51516H1.71875C1.582 6.51516 1.45085 6.46083 1.35415 6.36413C1.25745 6.26743 1.20313 6.13628 1.20313 5.99953C1.20313 5.86278 1.25745 5.73163 1.35415 5.63493C1.45085 5.53823 1.582 5.48391 1.71875 5.48391H8.03516L5.82141 3.27059C5.72454 3.17372 5.67012 3.04234 5.67012 2.90535C5.67012 2.76836 5.72454 2.63698 5.82141 2.54012C5.91827 2.44325 6.04965 2.38883 6.18664 2.38883C6.32363 2.38883 6.45501 2.44325 6.55187 2.54012L6.5523 2.54098Z" fill="#F65275"/>
</svg>
