<svg width="482" height="477" viewBox="0 0 482 477" fill="none" xmlns="http://www.w3.org/2000/svg">
<mask id="mask0_202_1947" style="mask-type:luminance" maskUnits="userSpaceOnUse" x="0" y="0" width="482" height="477">
<path d="M482 0H0V477H482V0Z" fill="white"/>
</mask>
<g mask="url(#mask0_202_1947)">
<path d="M513.5 497C788.262 497 1011 274.262 1011 -0.5C1011 -275.262 788.262 -498 513.5 -498C238.738 -498 16 -275.262 16 -0.5C16 274.262 238.738 497 513.5 497Z" stroke="url(#paint0_linear_202_1947)" stroke-width="0.850564"/>
<path d="M513.5 145C593.857 145 659 79.8574 659 -0.5C659 -80.8574 593.857 -146 513.5 -146C433.143 -146 368 -80.8574 368 -0.5C368 79.8574 433.143 145 513.5 145Z" stroke="url(#paint1_linear_202_1947)" stroke-width="0.850564"/>
<path d="M514 211C631.084 211 726 116.084 726 -1C726 -118.084 631.084 -213 514 -213C396.916 -213 302 -118.084 302 -1C302 116.084 396.916 211 514 211Z" stroke="url(#paint2_linear_202_1947)" stroke-width="0.850564"/>
<path d="M799 -0.499817C799 157.178 671.177 285 513.5 285C355.824 285 228 157.178 228 -0.499817C228 -158.178 355.824 -286 513.5 -286C671.177 -286 799 -158.178 799 -0.499817Z" stroke="url(#paint3_linear_202_1947)" stroke-width="0.850564"/>
<path d="M514 416C744.303 416 931 229.303 931 -1C931 -231.303 744.303 -418 514 -418C283.697 -418 97 -231.303 97 -1C97 229.303 283.697 416 514 416Z" stroke="url(#paint4_linear_202_1947)" stroke-width="0.850564"/>
</g>
<defs>
<linearGradient id="paint0_linear_202_1947" x1="513.5" y1="-498" x2="513.5" y2="497" gradientUnits="userSpaceOnUse">
<stop stop-color="#F3F3F4"/>
<stop offset="0.95" stop-color="white"/>
</linearGradient>
<linearGradient id="paint1_linear_202_1947" x1="513.5" y1="-146" x2="513.5" y2="145" gradientUnits="userSpaceOnUse">
<stop stop-color="#F3F3F4"/>
<stop offset="0.95" stop-color="white"/>
</linearGradient>
<linearGradient id="paint2_linear_202_1947" x1="514" y1="-213" x2="514" y2="211" gradientUnits="userSpaceOnUse">
<stop stop-color="#F3F3F4"/>
<stop offset="0.95" stop-color="white"/>
</linearGradient>
<linearGradient id="paint3_linear_202_1947" x1="513.5" y1="-286" x2="513.5" y2="285" gradientUnits="userSpaceOnUse">
<stop stop-color="#F3F3F4"/>
<stop offset="0.95" stop-color="white"/>
</linearGradient>
<linearGradient id="paint4_linear_202_1947" x1="514" y1="-418" x2="514" y2="416" gradientUnits="userSpaceOnUse">
<stop stop-color="#F3F3F4"/>
<stop offset="0.95" stop-color="white"/>
</linearGradient>
</defs>
</svg>
