<svg width="10" height="10" viewBox="0 0 10 10" fill="none" xmlns="http://www.w3.org/2000/svg">
<g clip-path="url(#clip0_237_1057)">
<path d="M7.69074 5.11484L5.64035 4.35938L4.88489 2.30898C4.84641 2.20466 4.77688 2.11465 4.68566 2.05106C4.59444 1.98748 4.48592 1.9534 4.37473 1.9534C4.26354 1.9534 4.15502 1.98748 4.0638 2.05106C3.97258 2.11465 3.90305 2.20466 3.86457 2.30898L3.1091 4.35938L1.05871 5.11484C0.954393 5.15332 0.864375 5.22285 0.800794 5.31407C0.737213 5.40529 0.703125 5.51381 0.703125 5.625C0.703125 5.73619 0.737213 5.84471 0.800794 5.93593C0.864375 6.02715 0.954393 6.09668 1.05871 6.13516L3.1091 6.89062L3.86457 8.94102C3.90305 9.04534 3.97258 9.13535 4.0638 9.19894C4.15502 9.26252 4.26354 9.2966 4.37473 9.2966C4.48592 9.2966 4.59444 9.26252 4.68566 9.19894C4.77688 9.13535 4.84641 9.04534 4.88489 8.94102L5.64035 6.89062L7.69074 6.13516C7.79507 6.09668 7.88508 6.02715 7.94867 5.93593C8.01225 5.84471 8.04633 5.73619 8.04633 5.625C8.04633 5.51381 8.01225 5.40529 7.94867 5.31407C7.88508 5.22285 7.79507 5.15332 7.69074 5.11484ZM7.52864 5.69531L5.37707 6.48828C5.3452 6.5 5.31626 6.51851 5.29225 6.54252C5.26824 6.56653 5.24973 6.59547 5.23801 6.62734L4.44504 8.77891C4.43971 8.79326 4.43012 8.80564 4.41755 8.81438C4.40498 8.82312 4.39004 8.82781 4.37473 8.82781C4.35942 8.82781 4.34448 8.82312 4.33191 8.81438C4.31934 8.80564 4.30974 8.79326 4.30442 8.77891L3.51145 6.62734C3.49973 6.59547 3.48122 6.56653 3.45721 6.54252C3.4332 6.51851 3.40426 6.5 3.37239 6.48828L1.22082 5.69531C1.20647 5.68998 1.19409 5.68039 1.18535 5.66782C1.17661 5.65525 1.17192 5.64031 1.17192 5.625C1.17192 5.60969 1.17661 5.59475 1.18535 5.58218C1.19409 5.56961 1.20647 5.56002 1.22082 5.55469L3.37239 4.76172C3.40426 4.75 3.4332 4.73149 3.45721 4.70748C3.48122 4.68347 3.49973 4.65453 3.51145 4.62266L4.30442 2.47109C4.30974 2.45674 4.31934 2.44436 4.33191 2.43562C4.34448 2.42688 4.35942 2.42219 4.37473 2.42219C4.39004 2.42219 4.40498 2.42688 4.41755 2.43562C4.43012 2.44436 4.43971 2.45674 4.44504 2.47109L5.23801 4.62266C5.24973 4.65453 5.26824 4.68347 5.29225 4.70748C5.31626 4.73149 5.3452 4.75 5.37707 4.76172L7.52864 5.55469C7.54299 5.56002 7.55537 5.56961 7.56411 5.58218C7.57285 5.59475 7.57754 5.60969 7.57754 5.625C7.57754 5.64031 7.57285 5.65525 7.56411 5.66782C7.55537 5.68039 7.54299 5.68998 7.52864 5.69531ZM5.70285 1.5625C5.70285 1.50034 5.72755 1.44073 5.7715 1.39677C5.81545 1.35282 5.87507 1.32812 5.93723 1.32812H6.64035V0.625C6.64035 0.56284 6.66505 0.503226 6.709 0.459272C6.75295 0.415318 6.81257 0.390625 6.87473 0.390625C6.93689 0.390625 6.9965 0.415318 7.04046 0.459272C7.08441 0.503226 7.1091 0.56284 7.1091 0.625V1.32812H7.81223C7.87439 1.32812 7.934 1.35282 7.97796 1.39677C8.02191 1.44073 8.0466 1.50034 8.0466 1.5625C8.0466 1.62466 8.02191 1.68427 7.97796 1.72823C7.934 1.77218 7.87439 1.79688 7.81223 1.79688H7.1091V2.5C7.1091 2.56216 7.08441 2.62177 7.04046 2.66573C6.9965 2.70968 6.93689 2.73438 6.87473 2.73438C6.81257 2.73438 6.75295 2.70968 6.709 2.66573C6.66505 2.62177 6.64035 2.56216 6.64035 2.5V1.79688H5.93723C5.87507 1.79688 5.81545 1.77218 5.7715 1.72823C5.72755 1.68427 5.70285 1.62466 5.70285 1.5625ZM9.6091 3.4375C9.6091 3.49966 9.58441 3.55927 9.54046 3.60323C9.4965 3.64718 9.43689 3.67188 9.37473 3.67188H8.9841V4.0625C8.9841 4.12466 8.95941 4.18427 8.91546 4.22823C8.8715 4.27218 8.81189 4.29688 8.74973 4.29688C8.68757 4.29688 8.62795 4.27218 8.584 4.22823C8.54005 4.18427 8.51535 4.12466 8.51535 4.0625V3.67188H8.12473C8.06257 3.67188 8.00295 3.64718 7.959 3.60323C7.91505 3.55927 7.89035 3.49966 7.89035 3.4375C7.89035 3.37534 7.91505 3.31573 7.959 3.27177C8.00295 3.22782 8.06257 3.20312 8.12473 3.20312H8.51535V2.8125C8.51535 2.75034 8.54005 2.69073 8.584 2.64677C8.62795 2.60282 8.68757 2.57812 8.74973 2.57812C8.81189 2.57812 8.8715 2.60282 8.91546 2.64677C8.95941 2.69073 8.9841 2.75034 8.9841 2.8125V3.20312H9.37473C9.43689 3.20312 9.4965 3.22782 9.54046 3.27177C9.58441 3.31573 9.6091 3.37534 9.6091 3.4375Z" fill="#F65275"/>
</g>
<defs>
<clipPath id="clip0_237_1057">
<rect width="10" height="10" fill="white"/>
</clipPath>
</defs>
</svg>
