<svg width="25" height="25" viewBox="0 0 25 25" fill="none" xmlns="http://www.w3.org/2000/svg">
<circle opacity="0.3" cx="12.5" cy="12.5" r="12.5" fill="#FC9BB3"/>
<path d="M11.72 14.83V13.38C12.1933 13.2933 12.61 13.1133 12.97 12.84C13.33 12.5667 13.51 12.2367 13.51 11.85C13.51 11.4767 13.37 11.1833 13.09 10.97C12.8167 10.75 12.4633 10.64 12.03 10.64C11.45 10.64 10.8733 10.8367 10.3 11.23V10.48C10.8067 10.1067 11.4233 9.92 12.15 9.92C12.75 9.92 13.2633 10.0933 13.69 10.44C14.1167 10.7867 14.33 11.2433 14.33 11.81C14.33 12.29 14.15 12.7 13.79 13.04C13.4367 13.3733 13.0033 13.6233 12.49 13.79V14.83H11.72ZM11.73 16.9C11.6233 16.7933 11.57 16.6633 11.57 16.51C11.57 16.3567 11.6233 16.2267 11.73 16.12C11.8433 16.0067 11.9767 15.95 12.13 15.95C12.2833 15.95 12.4133 16.0067 12.52 16.12C12.6267 16.2267 12.68 16.3567 12.68 16.51C12.68 16.6633 12.6267 16.7933 12.52 16.9C12.4133 17.0067 12.2833 17.06 12.13 17.06C11.9767 17.06 11.8433 17.0067 11.73 16.9Z" fill="white"/>
</svg>
